<svg version="1.1" xmlns="http://www.w3.org/2000/svg" xmlns:xlink="http://www.w3.org/1999/xlink" x="0px" y="0px" viewBox="0 0 1000 1000" enable-background="new 0 0 1000 1000" xml:space="preserve">
<metadata> Svg Vector Icons : http://www.onlinewebfonts.com/icon </metadata>
<g><path d="M500,990C229.4,990,10,770.6,10,500C10,229.4,229.4,10,500,10c270.6,0,490,219.4,490,490C990,770.6,770.6,990,500,990z M500,80C268,80,80,268,80,500c0,232,188,420,420,420c232,0,420-188,420-420C920,268,732,80,500,80z"/><path d="M500,220c25.8,0,46.7,20.9,46.7,46.7V570c0,25.8-20.9,46.7-46.7,46.7c-25.8,0-46.7-20.9-46.7-46.7V266.7C453.3,240.9,474.2,220,500,220z"/><path d="M500,686.7c25.8,0,46.7,20.9,46.7,46.7c0,25.8-20.9,46.7-46.7,46.7c-25.8,0-46.7-20.9-46.7-46.7C453.3,707.6,474.2,686.7,500,686.7z"/></g>
</svg>