<svg version="1.1" xmlns="http://www.w3.org/2000/svg" xmlns:xlink="http://www.w3.org/1999/xlink" x="0px" y="0px" viewBox="0 0 1000 1000" enable-background="new 0 0 1000 1000" xml:space="preserve">
<g><g transform="translate(0.000000,512.000000) scale(0.100000,-0.100000)"><path d="M473.2,4972.1c-149.3-61.3-275.6-191.4-331.1-340.7l-42.1-111V120v-4400.4l40.2-111c55.5-149.3,199.1-292.9,348.4-348.4l111-40.2H5000h4400.4l111,40.2c149.3,55.5,292.9,199.1,348.4,348.4l40.2,111V120v4400.4l-40.2,111c-55.5,149.3-199.1,292.8-348.4,348.4l-111,40.2H4994.3H588.1L473.2,4972.1z M9444.5,4564.5l63.2-61.3V120v-4383.2l-63.2-61.3l-61.3-63.2H5000H616.8l-61.3,63.2l-63.2,61.3V120v4381.3l55.5,57.4c30.6,30.6,76.6,61.3,105.3,65.1c26.8,3.8,2002.1,7.7,4388.9,5.7l4341.1-1.9L9444.5,4564.5z"/><path d="M2890.7,1419.6c-290.9-30.6-555.1-233.5-702.5-537.9c-116.8-239.3-157-451.7-157-809.6c0-436.4,65.1-719.7,220.1-953.2c183.8-277.5,470.9-396.2,863.2-357.9c222,21,243.1,28.7,231.6,93.8c-5.7,26.8-19.1,112.9-30.6,189.5c-19.1,118.7-28.7,137.8-55.5,126.3c-17.2-5.8-95.7-17.2-176.1-21.1c-128.2-9.6-156.9-3.8-252.7,40.2c-179.9,86.1-296.7,277.5-348.4,570.4c-49.8,279.5-26.8,679.5,49.8,893.9c67,191.4,218.2,357.9,357.9,400c101.5,30.6,258.4,28.7,338.8-3.8l65.1-26.8l38.3,172.3c23,93.8,40.2,174.2,40.2,178c0,9.6-178,45.9-268,51.7C3057.2,1429.2,2961.5,1427.3,2890.7,1419.6z"/><path d="M4444.9,397.5V-52.3h-430.7h-432.6l5.7-137.8l5.7-139.7l424.9-5.7l426.8-3.8l3.8-446l5.7-444.1h134h134l5.7,444.1l3.8,446l426.8,3.8l424.9,5.7l5.7,139.7l5.7,137.8h-432.6H4732v449.8v449.8h-143.6h-143.6V397.5z"/><path d="M6799.2,397.5V-52.3h-430.7H5936l5.7-137.8l5.7-139.7l426.8-5.7l424.9-3.8v-451.7v-449.8l139.7,5.7l137.8,5.7l5.7,444.1l3.8,446l426.8,3.8l424.9,5.7v134v134l-434.5,5.7l-436.4,3.8l-3.8,446l-5.7,444.1l-128.2,5.7l-130.2,5.7V397.5z"/></g></g>
</svg>