<svg version="1.1" xmlns="http://www.w3.org/2000/svg" xmlns:xlink="http://www.w3.org/1999/xlink" x="0px" y="0px" viewBox="0 0 1000 1000" enable-background="new 0 0 1000 1000" xml:space="preserve">
<g><path d="M72.8,10.5c284.9,2.1,578.3-4.3,857.8,3.2c-24.2,294.8-53.3,584.7-76.8,880.2c-89.8,23-172.7,44.1-265.7,70.4c-29.3,8.3-60.6,25.2-86.4,25.6c-27.3,0.5-59-16.6-89.6-25.6c-87.9-26-176.4-46.9-265.7-70.4C122.8,600.6,95,311.6,69.6,20.1C69.3,15.6,69,11.1,72.8,10.5z M173.5,186.4c-0.6,37.5,8.2,65.6,9.8,101c86.2,9.3,194-2.9,280.1,6.5c-90.4,36.6-177.3,76.7-267.1,114c1.7,39.5,7.8,74.7,9.8,114c140,5.4,286.6-10.1,413.6,3.3c1.6,50.4-6.9,90.9-6.5,140c-44.1,15.6-92.9,26.5-136.8,42.3c-45-13.6-103.3-13.9-143.3-32.6c-0.9-30.6-6.1-56.9-6.5-87.9c-36.9,0-73.8,0-110.7,0c0.1,62.8,7.1,118.9,16.3,172.6c40.1,10.7,78.8,21.8,120.5,32.6c34.5,9,88.9,30,123.8,29.3c19.2-0.4,42-11.3,61.9-16.3c64.4-16.3,124-32.1,185.6-48.9c11.1-113.8,20.8-228.9,29.3-345.2c-77.1-2.2-162.8,4.3-234.5-3.3C601.2,373.1,683,337.7,763,300.4c2.1-39.2,5.7-76.8,9.8-114C569.3,189.3,372.2,178.7,173.5,186.4z"/></g>
</svg>