<svg version="1.1" xmlns="http://www.w3.org/2000/svg" xmlns:xlink="http://www.w3.org/1999/xlink" x="0px" y="0px" viewBox="0 0 1000 1000" enable-background="new 0 0 1000 1000" xml:space="preserve">
<g><g transform="translate(0.000000,511.000000) scale(0.100000,-0.100000)"><path d="M2313.5,4590c-609.2-90-1116.9-521.1-1293.2-1099.6c-24.9-86.2-143.7-906.2-335.3-2329.6C522.2-48.1,388.1-1053.9,388.1-1076.9c0-34.5,13.4-28.7,122.6,47.9C664-921.7,870.9-825.9,1070.2-768.4l151.3,44.1h3783.7h3783.7l151.3-44.1c191.6-55.6,394.6-149.5,546-252.9c67.1-44.1,122.6-76.6,126.4-72.8c11.5,13.4-582.4,4419.7-613,4534.6c-70.9,272-216.5,515.4-433,722.3c-212.7,201.2-411.9,314.2-705,396.6l-145.6,42.1l-2643.8,1.9C3618.1,4605.3,2376.7,4599.6,2313.5,4590z M2654.5,1317.8l99.6-93.9l101.5,93.9c90,84.3,111.1,93.9,187.8,93.9c122.6,0,199.2-76.6,199.2-199.3c0-76.6-9.6-97.7-93.9-187.7l-93.9-101.5l93.9-99.6c82.4-88.1,93.9-109.2,93.9-182c-1.9-124.5-84.3-206.9-210.7-206.9c-46,0-84.3,23-164.8,99.6L2761.8,632l-70.9-67.1c-162.8-155.2-254.8-170.5-360.2-65.1c-105.4,105.4-90,201.2,55.6,350.6l78.5,80.4l-99.6,105.4c-109.2,114.9-124.5,176.3-70.9,279.7c38.3,72.8,78.5,93.9,178.2,95.8C2545.3,1411.7,2566.4,1400.2,2654.5,1317.8z M3880.6,1317.8l99.6-93.9l101.5,93.9c90,84.3,111.1,93.9,187.7,93.9c122.6,0,199.2-76.6,199.2-199.3c0-76.6-9.6-97.7-93.9-187.7L4281,923.2l93.9-99.6c82.4-88.1,93.9-109.2,93.9-182c-1.9-124.5-84.3-206.9-210.7-206.9c-46,0-84.3,23-164.8,99.6L3987.9,632l-70.9-67.1c-162.8-155.2-254.8-170.5-360.2-65.1c-105.4,105.4-90,201.2,55.6,350.6l78.5,80.4l-99.6,105.4c-109.2,114.9-124.5,176.3-70.9,279.7c38.3,72.8,78.5,93.9,178.2,95.8C3771.4,1411.7,3792.5,1400.2,3880.6,1317.8z M5106.7,1317.8l99.6-93.9l101.5,93.9c90,84.3,111.1,93.9,187.7,93.9c122.6,0,199.3-76.6,199.3-199.3c0-76.6-9.6-97.7-93.9-187.7l-93.9-101.5l93.9-99.6c82.4-88.1,93.9-109.2,93.9-182c-1.9-124.5-84.3-206.9-210.7-206.9c-46,0-84.3,23-164.8,99.6L5214,632l-70.9-67.1c-162.8-155.2-254.8-170.5-360.2-65.1c-105.4,105.4-90,201.2,55.6,350.6l78.5,80.4l-99.6,105.4c-109.2,114.9-124.5,176.3-70.9,279.7c38.3,72.8,78.5,93.9,178.2,95.8C4997.5,1411.7,5018.6,1400.2,5106.7,1317.8z M6719.8,905.9c67.1-28.7,124.5-113,124.5-183.9c0-70.9-57.5-155.2-124.5-183.9c-95.8-38.3-490.4-36.4-574.7,3.8c-59.4,26.8-124.5,122.6-124.5,180.1c0,55.5,65.1,151.3,120.7,180.1C6223.6,942.3,6625.9,944.3,6719.8,905.9z M7945.9,905.9c67.1-28.7,124.5-113,124.5-183.9c0-70.9-57.5-155.2-124.5-183.9c-95.8-38.3-490.4-36.4-574.7,3.8c-59.4,26.8-124.5,122.6-124.5,180.1c0,55.5,65.1,151.3,120.7,180.1C7449.7,942.3,7852,944.3,7945.9,905.9z"/><path d="M1250.2-1145.9c-563.2-113-1013.4-569-1122.7-1136.1c-38.3-199.2-36.4-764.4,3.8-957.9c111.1-538.3,542.2-984.7,1074.8-1109.2c141.8-32.6,327.6-34.5,3799-34.5c4126.6,0,3783.7-13.4,4118.9,155.2c289.3,145.6,555.6,431.1,676.3,728c90.1,222.2,99.6,298.9,99.6,754.8c0,358.2-5.7,452.1-34.5,555.6c-139.9,496.2-517.3,877.4-1019.2,1028.8c-109.2,32.6-312.3,34.5-3793.3,38.3C2095.1-1121,1349.9-1124.8,1250.2-1145.9z M8428.7-2199.5c385.1-174.4,471.3-699.3,164.7-988.5c-115-109.2-224.2-157.1-388.9-166.7c-185.8-9.6-325.7,40.2-450.2,160.9c-245.2,237.6-256.7,603.5-30.6,858.3C7896.1-2145.9,8187.3-2088.4,8428.7-2199.5z"/><path d="M8030.2-2609.5c-44.1-46-55.6-72.8-55.6-139.8c1.9-191.6,203.1-275.9,337.2-141.8c134.1,134.1,49.8,335.2-141.8,337.2C8103-2553.9,8076.2-2565.4,8030.2-2609.5z"/></g></g>
</svg>